<svg xmlns="http://www.w3.org/2000/svg" viewBox="0 0 409.99 409.99" fill="#a4d680"><g id="Слой_2" data-name="Слой 2"><g id="Layer_1" data-name="Layer 1"><path d="M392.76,121.66c-22.89-22.89-60.28-22.72-83.28,0l-83.27,83.27,83.27,83.27a58.88,58.88,0,0,0,83.28-83.27A58.91,58.91,0,0,0,392.76,121.66Z"/><path d="M100.51,121.65c-23-22.71-60.39-22.88-83.27,0a58.9,58.9,0,0,0,0,83.28,58.88,58.88,0,0,0,83.27,83.27l83.27-83.27Z"/><path d="M205.06,226.21l-83.27,83.27a58.88,58.88,0,0,0,83.27,83.28,58.92,58.92,0,0,0,83.28,0c22.88-22.89,22.71-60.28,0-83.28Z"/><path d="M205.06,183.78l83.28-83.27c22.71-23,22.89-60.39,0-83.27a58.9,58.9,0,0,0-83.28,0,58.88,58.88,0,0,0-83.27,83.27Z"/></g></g></svg>