<svg xmlns="http://www.w3.org/2000/svg" width="125.039" height="62.359" viewBox="0 0 125.039 62.359"><defs><style>.a{fill:#a4d680;}.b{fill:#707070;}.c{fill:#1a7b5c;}</style></defs><g transform="translate(-174.9 -332.843)"><path class="a" d="M234.53,348.534l-2.734,2.631a.405.405,0,0,1-.087-.344,7.437,7.437,0,0,0,.113-2.052,4.517,4.517,0,0,0-5.642-4.134,7.032,7.032,0,0,0-4.191,3.391c-.215.354-.374.426-.564,0a5.319,5.319,0,0,0-.816-1.226,5.582,5.582,0,0,0-4.1-2.277,4.889,4.889,0,0,0-4.837,4.734,12.665,12.665,0,0,0,.477,3.134.718.718,0,0,1-.513-.344A21.656,21.656,0,0,1,208,345.215a10.772,10.772,0,0,1-.354-4.483,6.2,6.2,0,0,1,3.1-4.488,5.642,5.642,0,0,1,6.053-.221,10.12,10.12,0,0,1,4.822,5.724c.051.144.062.328.277.349a10.859,10.859,0,0,1,4.073-5.37,6.544,6.544,0,0,1,4.9-1.452,6.12,6.12,0,0,1,5.494,6.545,13.922,13.922,0,0,1-1.134,5.047,3.428,3.428,0,0,0-.554,1.472h0C234.571,348.339,234.54,348.436,234.53,348.534Z" transform="translate(-15.902 -1.15)"/><path class="a" d="M211.649,381.381a5.3,5.3,0,0,1,0,5.129l-.128.154h0c-.236-.087-.38.072-.513.205-1.954,1.708-3.934,3.375-5.991,4.955-.231,0-.374.159-.539.272a11.714,11.714,0,0,1-3.5,1.611c-2.349.621-4.56.574-6.2-1.6a4.282,4.282,0,0,1-.6-4.7,6.868,6.868,0,0,1,2.919-3.078c.154-.092.395-.118.405-.333s-.246-.3-.415-.4a7.268,7.268,0,0,1-3.037-3.508,4.411,4.411,0,0,1,.785-4.7,4.621,4.621,0,0,1,4.411-1.585,17.44,17.44,0,0,1,3.929,1.149,41.391,41.391,0,0,1,6.212,4.668A12.514,12.514,0,0,0,211.649,381.381Z" transform="translate(-9.153 -19.923)"/><path class="a" d="M217.093,405.157h6.637c1.364,0,1.364,0,1.364-1.4v-6.268a1.457,1.457,0,0,1,.051-.544c.1-.241.256-.41.549-.144,1.893,1.723,3.827,3.4,5.555,5.3l.128.154h0l.133.138h0l.133.138h0l.133.138h0c0,.113,0,.21.138.251h0l.128.128h0c0,.174.056.277.246.251h0c0,.087.036.133.128.128h0c-.077.236.092.369.205.544.472.713.934,1.441,1.4,2.159a1.067,1.067,0,0,0,.185.513,10.89,10.89,0,0,1,1.18,5.129,4.319,4.319,0,0,1-2.3,3.852,4.483,4.483,0,0,1-4.663-.031,7.561,7.561,0,0,1-2.96-3.114c-.174-.308-.323-.451-.513-.031a6.089,6.089,0,0,1-1.78,2.088,4.709,4.709,0,0,1-3.539,1.272,4.929,4.929,0,0,1-4.437-4.883,24.519,24.519,0,0,1,.359-2.472A17.364,17.364,0,0,1,217.093,405.157Z" transform="translate(-19.624 -31.085)"/><path class="a" d="M216.007,361.165a12.664,12.664,0,0,1-.477-3.134,4.889,4.889,0,0,1,4.837-4.734,5.564,5.564,0,0,1,4.1,2.277,5.319,5.319,0,0,1,.816,1.226c.19.421.349.349.564,0a7.032,7.032,0,0,1,4.191-3.391,4.5,4.5,0,0,1,5.642,4.134,7.438,7.438,0,0,1-.113,2.052.405.405,0,0,0,.087.344c-1.836,1.985-3.626,4.006-5.294,6.155s-3.262,4.314-4.786,6.55c-.077.113-.159.226-.354.482v-8.6c0-.61-.19-.739-.764-.728-2.272.036-4.545,0-6.822,0a3.886,3.886,0,0,1-.421-.041,24.869,24.869,0,0,1-1.211-2.59Z" transform="translate(-19.789 -9.945)"/><path class="a" d="M195.869,386.905c2.052-1.58,4.037-3.247,5.991-4.955.154-.133.3-.292.513-.205a8.592,8.592,0,0,1-2.431,3.421,86.915,86.915,0,0,1-7.407,6.1,17.921,17.921,0,0,1-8.92,3.555,8.234,8.234,0,0,1-3.547-.479,7.815,7.815,0,0,1-5.055-6.41,7.109,7.109,0,0,1,1.108-4.616,11.337,11.337,0,0,1,3.642-3.693c.395-.256.41-.369,0-.646a11.941,11.941,0,0,1-4.165-4.842,7.366,7.366,0,0,1,6.668-10.495,16.835,16.835,0,0,1,8.366,2.375,44.579,44.579,0,0,1,6.966,5.253c1.026.836,2,1.708,3.016,2.534a6.668,6.668,0,0,1,1.893,2.678,11.5,11.5,0,0,1-2.257-1.77,41.391,41.391,0,0,0-6.212-4.668.677.677,0,0,0-.333-.513c-2.883-2.247-5.965-4.1-9.684-4.575-2.565-.328-4.909,0-6.571,2.272a5.884,5.884,0,0,0-1.185,5.058c.677,2.708,2.513,4.514,4.709,6.048a20.622,20.622,0,0,0,2.108,1.026c-3.078,1.359-3.673,1.765-5.222,3.591a6.228,6.228,0,0,0-.9,7.181,6.887,6.887,0,0,0,6.268,3.55,15.588,15.588,0,0,0,5.345-1.441,32.562,32.562,0,0,0,7.027-4.868.6.6,0,0,0,.267-.462Z" transform="translate(0 -14.998)"/><path class="b" d="M265.506,359.364c-.067-.19-.128-.385-.195-.575a5.646,5.646,0,0,0-6.668-3.97,16.927,16.927,0,0,0-6.514,2.785,62.631,62.631,0,0,0-10.259,8.689c-2.416,2.431-4.719,4.97-6.955,7.561l-.385.477a1.626,1.626,0,0,1,.108-1.282,89.4,89.4,0,0,1,12.6-15.388,23.816,23.816,0,0,1,6.489-4.616,12.178,12.178,0,0,1,7.371-1.026,5.583,5.583,0,0,1,4.647,6.54c-.036.256-.072.513-.1.775Z" transform="translate(-29.003 -9.242)"/><path class="a" d="M212.219,411.52a17.364,17.364,0,0,0-1.616,3.221.513.513,0,0,0-.4.256,17.957,17.957,0,0,0-3.667,7.992c-.385,2.59,0,4.934,2.124,6.735a6.314,6.314,0,0,0,4.047,1.652,6.882,6.882,0,0,0,4.786-2.052,9.992,9.992,0,0,0,2.955-4.365c.041-.138.056-.308.236-.313s.154.169.19.272a10.833,10.833,0,0,0,3.868,4.96,6.433,6.433,0,0,0,5.078,1.482,6.153,6.153,0,0,0,5.386-6.535,12.639,12.639,0,0,0-.672-3.775,22.056,22.056,0,0,0-4.011-7.079,5.285,5.285,0,0,0-1.441-1.539c-.462-.718-.923-1.446-1.4-2.159-.113-.174-.282-.308-.205-.544a12.357,12.357,0,0,1,2.052,2.18,32.751,32.751,0,0,1,5.765,9.033,10.806,10.806,0,0,1,.934,5.581,7.315,7.315,0,0,1-9.053,5.894,11.2,11.2,0,0,1-6.083-4.56c-.313-.431-.441-.513-.759,0a11.142,11.142,0,0,1-3.185,3.293,6.994,6.994,0,0,1-7.5.692,7.562,7.562,0,0,1-4.463-6.781,13.469,13.469,0,0,1,1.19-5.858,28.229,28.229,0,0,1,4.934-7.458A.831.831,0,0,1,212.219,411.52Z" transform="translate(-14.75 -37.449)"/><path class="a" d="M210.949,351.22a24.865,24.865,0,0,0,1.252,2.611,1.123,1.123,0,0,1-1.262-.513,26.472,26.472,0,0,1-4.734-7.432,11.778,11.778,0,0,1-.846-6.914,7.554,7.554,0,0,1,12.228-4.3,12.059,12.059,0,0,1,2.811,3.078c.231.364.344.339.574,0a12.942,12.942,0,0,1,4.263-3.919A7.432,7.432,0,0,1,236.36,340.4a13.516,13.516,0,0,1-1.026,5.129,3.931,3.931,0,0,1-1.841,1.621,3.429,3.429,0,0,1,.554-1.472,13.921,13.921,0,0,0,1.134-5.047,6.12,6.12,0,0,0-5.494-6.545,6.481,6.481,0,0,0-4.9,1.452,10.859,10.859,0,0,0-4.073,5.37c-.215,0-.226-.205-.277-.349a10.12,10.12,0,0,0-4.822-5.724,5.642,5.642,0,0,0-6.053.221,6.2,6.2,0,0,0-3.1,4.488,10.772,10.772,0,0,0,.354,4.483,21.656,21.656,0,0,0,3.647,6.853A.718.718,0,0,0,210.949,351.22Z" transform="translate(-14.732 0)"/><path class="b" d="M249.383,424.325c.031-.077.036-.138.072-.174,2.283-2.324,2.642-5.129,2.016-8.166a22.932,22.932,0,0,0-4.216-8.674A72.308,72.308,0,0,0,236.2,395.554c-.205-.185-.436-.318-.133-.626.231-.231.369-.426.744-.154a56.136,56.136,0,0,1,13.849,13.567,20.343,20.343,0,0,1,2.883,5.612,9.792,9.792,0,0,1-.667,7.694,4.986,4.986,0,0,1-3.488,2.678Z" transform="translate(-29.719 -30.1)"/><path class="b" d="M227.024,376.06v7.868c-.867-3.216-3.047-5.535-5.5-7.863" transform="translate(-22.707 -21.049)"/><path class="b" d="M227.087,396v7.222c0,.2.046.436-.277.436h-5.16C224.03,401.4,226.195,399.149,227.087,396Z" transform="translate(-22.77 -30.761)"/><path class="c" d="M248.184,409.182c-.19.026-.262-.077-.246-.251C248.159,408.88,248.154,409.049,248.184,409.182Z" transform="translate(-35.573 -37.055)"/><path class="c" d="M247.578,408.481c-.123-.041-.144-.138-.138-.251C247.532,408.286,247.66,408.327,247.578,408.481Z" transform="translate(-35.331 -36.718)"/><path class="c" d="M260.15,360.976a.208.208,0,0,1,.154-.226C260.289,360.847,260.278,360.95,260.15,360.976Z" transform="translate(-41.522 -13.592)"/><path class="c" d="M246.628,407.384l-.128-.154Z" transform="translate(-34.874 -36.231)"/><path class="c" d="M246.873,407.638l-.133-.138Z" transform="translate(-34.991 -36.362)"/><path class="c" d="M247.093,407.868l-.133-.138Z" transform="translate(-35.098 -36.474)"/><path class="c" d="M247.333,408.118l-.133-.138Z" transform="translate(-35.215 -36.596)"/><path class="c" d="M247.878,408.851l-.128-.128C247.847,408.656,247.878,408.707,247.878,408.851Z" transform="translate(-35.483 -36.944)"/><path class="c" d="M248.538,409.558c-.092,0-.133-.041-.128-.128A.128.128,0,0,1,248.538,409.558Z" transform="translate(-35.804 -37.302)"/><path class="c" d="M228.49,398.754l.128-.154Z" transform="translate(-26.102 -32.028)"/><path class="a" d="M197,388.046a.6.6,0,0,1-.277.457,32.562,32.562,0,0,1-7.027,4.868,15.59,15.59,0,0,1-5.345,1.441,6.887,6.887,0,0,1-6.268-3.55,6.235,6.235,0,0,1,.9-7.181c1.539-1.816,2.129-2.221,5.222-3.591a20.624,20.624,0,0,1-2.108-1.026c-2.2-1.539-4.032-3.339-4.709-6.048a5.884,5.884,0,0,1,1.185-5.058c1.662-2.277,4.016-2.6,6.571-2.272,3.719.477,6.8,2.329,9.684,4.575a.677.677,0,0,1,.333.513,17.441,17.441,0,0,0-3.929-1.149,4.621,4.621,0,0,0-4.411,1.585,4.411,4.411,0,0,0-.785,4.7,7.268,7.268,0,0,0,3.037,3.508c.169.1.426.149.415.4s-.251.241-.405.333a6.868,6.868,0,0,0-2.919,3.078,4.245,4.245,0,0,0,.6,4.7c1.641,2.175,3.852,2.221,6.2,1.6a11.716,11.716,0,0,0,3.5-1.611C196.622,388.179,196.765,388,197,388.046Z" transform="translate(-1.127 -16.139)"/><path class="a" d="M230.237,414.94a5.7,5.7,0,0,1,1.441,1.539,22.056,22.056,0,0,1,4.011,7.114,12.638,12.638,0,0,1,.672,3.775,6.153,6.153,0,0,1-5.386,6.535,6.433,6.433,0,0,1-5.078-1.482,10.833,10.833,0,0,1-3.868-4.96c-.036-.1,0-.282-.19-.272s-.195.174-.236.313a9.992,9.992,0,0,1-2.955,4.365,6.972,6.972,0,0,1-4.786,2.052,6.314,6.314,0,0,1-4.047-1.652c-2.134-1.8-2.508-4.145-2.124-6.735a17.957,17.957,0,0,1,3.667-7.992.513.513,0,0,1,.4-.256,24.509,24.509,0,0,0-.359,2.472,4.929,4.929,0,0,0,4.437,4.883,4.708,4.708,0,0,0,3.539-1.272,6.088,6.088,0,0,0,1.78-2.088c.195-.421.344-.277.513.031a7.561,7.561,0,0,0,2.96,3.114,4.483,4.483,0,0,0,4.663.031,4.319,4.319,0,0,0,2.3-3.852,10.89,10.89,0,0,0-1.18-5.129,1.067,1.067,0,0,1-.18-.533Z" transform="translate(-15.908 -39.986)"/><path class="b" d="M253.352,386.348v-3.837l-.077-2.6a9.625,9.625,0,0,0,1.026.082,8.506,8.506,0,0,0,.985-.082c-.026.641-.051,1.6-.077,2.857v1.2q.877-1.008,1.7-2.052c.549-.7,1.072-1.354,1.57-2.026a5.7,5.7,0,0,0,.708.082,4.185,4.185,0,0,0,.708-.082v.118l-2.088,2.231-.395.446-.318.369c-.118.144-.262.308-.431.513l3.37,4.945v.154l-.559-.036c-.251,0-.436-.026-.564-.026a10.079,10.079,0,0,0-1.1.062l-1.241-1.954-1.359-2.052.077,4-.513-.036c-.231,0-.405-.026-.513-.026a3.873,3.873,0,0,0-.487.026l-.513.036Z" transform="translate(-38.166 -22.915)"/><path class="b" d="M271.023,385.338c-.2-.354-.323-.569-.374-.646s-.067-.082-.1-.082-.056,0-.056.082v2.616c0,.344.046.79.1,1.344l-.513-.036c-.231,0-.405-.026-.513-.026a4.329,4.329,0,0,0-.513.026l-.513.036v-.81a1.2,1.2,0,0,1,.026-.272c.036-.554.056-1.4.056-2.529v-2.324c0-.6-.026-1.539-.077-2.837l.887.036h1.831a5.421,5.421,0,0,1,2.052.262,2.052,2.052,0,0,1,1.123,1.867,2.175,2.175,0,0,1-.513,1.508,2.652,2.652,0,0,1-1.457.8q.513.887,2.262,3.591l.457.733-.585-.036c-.262,0-.457-.026-.58-.026a11.19,11.19,0,0,0-1.144.046L271.4,386.04Zm-.513-3.211v1.954a2.134,2.134,0,0,0,1.539-.451,1.826,1.826,0,0,0,.477-1.38,3.424,3.424,0,0,0-.056-.651,1.273,1.273,0,0,0-.267-.58.9.9,0,0,0-.426-.282,2.117,2.117,0,0,0-.58-.087h-.646Z" transform="translate(-45.609 -22.91)"/><path class="b" d="M282.29,388.5l.944-2.19c1.093-2.5,1.98-4.683,2.657-6.54h.159l.18.031h.159a1.241,1.241,0,0,0,.231,0l.241-.036.1.215q1.58,4.17,3.344,8.356l.077.133v.138l-.549-.036c-.241,0-.426-.026-.554-.026a9.226,9.226,0,0,0-1.062.062c-.369-1.175-.667-2.052-.887-2.621h-1.421c-.328,0-.846,0-1.539.041l-.056.174-.446,1.246a11.9,11.9,0,0,0-.364,1.2,2.97,2.97,0,0,0-.61-.062,2.922,2.922,0,0,0-.59.062Zm2.4-3.3h2.344c-.277-.78-.657-1.78-1.144-2.99q-.682,1.539-1.159,2.878Z" transform="translate(-52.306 -22.851)"/><path class="b" d="M303.805,388.637l-.282-.036a2.791,2.791,0,0,0-.292-.026,2.591,2.591,0,0,0-.575.062c-.513-1.359-1.026-2.8-1.626-4.3s-1.19-3-1.8-4.473c.513.056.908.082,1.123.082s.6-.026,1.123-.082q.292,1,.646,1.97c.231.646.513,1.4.831,2.236s.59,1.57.81,2.18q1.493-3.591,2.4-6.386h.139a10.07,10.07,0,0,0,1.026-.036l-1.226,2.914c-.477,1.144-.908,2.206-1.293,3.175S304.093,387.806,303.805,388.637Z" transform="translate(-60.557 -22.885)"/><path class="b" d="M323.616,387.05l-.277,1.1a5.53,5.53,0,0,1-2.539.513,9.61,9.61,0,0,1-1.677-.18,4.725,4.725,0,0,1-1.4-.631A4.1,4.1,0,0,1,316,384.434a5.749,5.749,0,0,1,.333-2.052,3.965,3.965,0,0,1,1.144-1.59,5.36,5.36,0,0,1,3.621-1.159,5.437,5.437,0,0,1,2.6.61c-.036.144-.082.344-.138.6s-.108.487-.154.7h-.18a2.621,2.621,0,0,0-.934-.816,2.529,2.529,0,0,0-1.2-.308,2.591,2.591,0,0,0-1.682.549,3.257,3.257,0,0,0-1,1.431,5.483,5.483,0,0,0-.318,1.862,4.247,4.247,0,0,0,.754,2.6,2.667,2.667,0,0,0,1.026.8,3.041,3.041,0,0,0,1.277.282,3.17,3.17,0,0,0,1.226-.267,3.528,3.528,0,0,0,1.077-.672Z" transform="translate(-68.723 -22.786)"/><path class="b" d="M334.9,379.922c.19,0,.513-.026,1.026-.082a7.3,7.3,0,0,1-.046.9,8.388,8.388,0,0,0-.046.892v1.729h3.9v-1.806a14.317,14.317,0,0,0-.082-1.718c.513.056.862.082,1.067.082s.513-.026,1.067-.082c0,.205-.036.513-.072.862s-.051.667-.051.893c-.026,1.344-.036,2.334-.036,2.975,0,1.8.036,3.144.118,4.042l-.513-.036c-.226,0-.39-.026-.513-.026a5.609,5.609,0,0,0-.585.026l-.559.036c.051-.79.092-1.38.123-1.775,0-.816.036-1.426.036-1.836v-.61c-.867-.026-1.539-.036-1.954-.036s-1.077,0-1.965.036v1.539c0,.805.031,1.7.092,2.683l-.513-.036c-.226,0-.395-.026-.513-.026a5.136,5.136,0,0,0-.559.026l-.58.036q.179-2.052.18-4.714,0-2.354-.123-4.057A7.262,7.262,0,0,0,334.9,379.922Z" transform="translate(-77.37 -22.89)"/><path class="b" d="M353.271,379.88a8.37,8.37,0,0,1,.975.046,8.574,8.574,0,0,0,1.026.036c.436,0,.949,0,1.539-.031l1.359-.031v.944a.462.462,0,0,1,0,.159c-1.252-.1-2.226-.159-2.919-.159v2.76l2.919-.1a3.4,3.4,0,0,0-.077.59,2.231,2.231,0,0,0,.077.513c-.851-.062-1.616-.1-2.288-.1h-.631v3.247c.79,0,1.775-.062,2.96-.174v.944a.461.461,0,0,1,0,.159l-1.154-.046q-.769-.031-1.154-.031h-1.518c-.164,0-.616,0-1.144.041a2.322,2.322,0,0,1,.026-.374,1.619,1.619,0,0,0,0-.359c0-.241,0-.636.031-1.18s.026-.949.026-1.221v-3.432c0-.221,0-.559-.036-1.026s-.036-.8-.041-1.026Z" transform="translate(-86.863 -22.91)"/><path class="b" d="M366.948,388.636a3.622,3.622,0,0,0-.513-.041,2.933,2.933,0,0,0-.6.062q.138-1.377.19-2.862c.036-.99.046-2.052.046-3.231V379.9a3.372,3.372,0,0,0,.569.082,3.433,3.433,0,0,0,.6-.082c.513.559.98,1.072,1.421,1.539l1.482,1.585,1.39,1.508c.385.415.805.887,1.262,1.411v-4.257a6.908,6.908,0,0,0-.036-.805c-.036-.323-.041-.569-.046-.728v-.262a3.484,3.484,0,0,0,.574.082,2.326,2.326,0,0,0,.3-.026,2.886,2.886,0,0,1,.287-.036c-.026.318-.036.554-.036.713-.051.621-.087,1.159-.1,1.616v.651a5.566,5.566,0,0,1-.026.605,5.693,5.693,0,0,0,0,.662v4.509a.3.3,0,0,0-.138,0,2.131,2.131,0,0,0-.359,0,3.033,3.033,0,0,0-.626,0q-2.339-2.755-4.2-4.714L367.01,382.5c-.026.79-.036,1.359-.036,1.713v1.185q0,2.185.082,3.273Z" transform="translate(-93 -22.915)"/><path class="b" d="M385.2,386.348v-3.837l-.077-2.6a9.61,9.61,0,0,0,1.026.082,8.445,8.445,0,0,0,.98-.082c-.026.641-.051,1.6-.077,2.857v1.2q.877-1.008,1.7-2.052c.549-.7,1.072-1.354,1.564-2.026a5.905,5.905,0,0,0,.708.082,4.176,4.176,0,0,0,.713-.082v.118l-2.093,2.226c-.174.19-.308.339-.395.446l-.318.369-.431.513,3.365,4.945v.159l-.559-.036c-.246,0-.436-.026-.559-.026a10.012,10.012,0,0,0-1.1.062l-1.241-1.954-1.359-2.052.072,4-.513-.036c-.231,0-.405-.026-.513-.026a4.465,4.465,0,0,0-.513.026l-.513.036Z" transform="translate(-102.366 -22.915)"/><path class="b" d="M407.814,387.509a5.232,5.232,0,0,1-3.529,1.205,4.734,4.734,0,0,1-3.488-1.282,4.355,4.355,0,0,1-1.262-3.288,4.3,4.3,0,0,1,1.539-3.432,5.34,5.34,0,0,1,3.524-1.185,4.955,4.955,0,0,1,2.975.872,3.837,3.837,0,0,1,1.38,1.657,5.17,5.17,0,0,1,.395,2.052,4.658,4.658,0,0,1-.395,1.882A4.36,4.36,0,0,1,407.814,387.509Zm-1.164-1.026a5.549,5.549,0,0,0,.554-2.637,5.052,5.052,0,0,0-.287-1.7,3.077,3.077,0,0,0-.893-1.344,2.267,2.267,0,0,0-1.539-.513,2.385,2.385,0,0,0-1.436.431,2.739,2.739,0,0,0-.908,1.062,6.412,6.412,0,0,0-.487,2.744,4.913,4.913,0,0,0,.277,1.662,2.8,2.8,0,0,0,.918,1.277,2.323,2.323,0,0,0,1.513.513A2.565,2.565,0,0,0,406.649,386.483Z" transform="translate(-109.409 -22.737)"/><path class="b" d="M277.554,406.361a4.429,4.429,0,0,0,.539,0h.646l-.041.667a1.723,1.723,0,0,1,.585-.549,1.477,1.477,0,0,1,.749-.215,1.338,1.338,0,0,1,.754.205,1.175,1.175,0,0,1,.457.616,1.641,1.641,0,0,1,1.385-.836,1.318,1.318,0,0,1,1.026.405,1.667,1.667,0,0,1,.385,1.2V410.7h-.082c-.241,0-.426-.026-.559-.026h-.313l-.344.026a4.315,4.315,0,0,0,.031-.462v-1.841a4.3,4.3,0,0,0-.041-.739.836.836,0,0,0-.2-.472.564.564,0,0,0-.457-.195.667.667,0,0,0-.61.333.928.928,0,0,0-.118.277,3.079,3.079,0,0,0-.036.39v1.688c0,.349,0,.687.026,1.026l-.328-.026h-.646l-.339.026c.067-1.149.1-1.857.1-2.134,0-.133,0-.344-.026-.641-.046-.61-.272-.918-.682-.918s-.718.364-.739,1.087v.513c0,.467,0,1.159.056,2.093l-.333-.026h-.641l-.323.026v-2.554c0-.39,0-.985-.031-1.78Z" transform="translate(-49.924 -35.752)"/><path class="b" d="M293.307,408.522a5.126,5.126,0,0,0,.031.513,1.538,1.538,0,0,0,.154.513,1.261,1.261,0,0,0,.277.405,1.18,1.18,0,0,0,.79.256,1.6,1.6,0,0,0,1.057-.4l.113.082-.195.513a2.246,2.246,0,0,1-1.3.405,2.939,2.939,0,0,1-.99-.149,1.811,1.811,0,0,1-.739-.554,2.467,2.467,0,0,1-.513-1.688,2.565,2.565,0,0,1,.246-1.134,1.832,1.832,0,0,1,.718-.785,2.16,2.16,0,0,1,1.113-.282,2.011,2.011,0,0,1,1.052.257,1.508,1.508,0,0,1,.616.708,2.565,2.565,0,0,1,.2,1.026,2.05,2.05,0,0,1,0,.292Zm1.4-.436a.51.51,0,0,1,0-.1.454.454,0,0,0,0-.1c-.026-.846-.236-1.267-.626-1.267a.564.564,0,0,0-.569.426,4.577,4.577,0,0,0-.185,1.026Z" transform="translate(-57.029 -35.738)"/><path class="b" d="M303.78,401.63a3.513,3.513,0,0,0,.544.031q.241,0,.677-.031c0,.282-.026.574-.036.877q-.031,1.093-.031,1.647c0,1.19-.026,2.083-.026,2.678,0,.349,0,.887.056,1.616h-.128a4.84,4.84,0,0,0-.487-.026h-.318l-.308.026c.046-.421.067-.677.067-.769a1.287,1.287,0,0,1-1.282.882,1.539,1.539,0,0,1-1.354-.646,2.913,2.913,0,0,1-.426-1.626,2.785,2.785,0,0,1,.431-1.539,1.718,1.718,0,0,1,.575-.513,1.539,1.539,0,0,1,.749-.2,1.3,1.3,0,0,1,1.226.657v-1.739c0-.287,0-.713-.051-1.272Zm-1.718,4.683c0,1.113.272,1.672.81,1.672a.7.7,0,0,0,.693-.559,3.864,3.864,0,0,0,.185-1.211,3.648,3.648,0,0,0-.164-1.113.646.646,0,0,0-.641-.513.7.7,0,0,0-.7.513A3.719,3.719,0,0,0,302.062,406.313Z" transform="translate(-61.285 -33.503)"/><path class="b" d="M311.121,407.942v-.867c0-.687.031-1.149.031-1.38v-.79a5.3,5.3,0,0,0-.026-.7h1.364l-.056,1.169c-.026.38-.041.964-.041,1.754a12.45,12.45,0,0,0,.067,1.411l-.354-.026H311.4l-.313.026Zm.682-6.114a.708.708,0,0,1,.513.205.677.677,0,0,1,.215.513.661.661,0,0,1-.221.513.708.708,0,0,1-.513.21.662.662,0,0,1-.513-.215.723.723,0,0,1-.205-.513.713.713,0,0,1,.205-.513A.641.641,0,0,1,311.8,401.828Z" transform="translate(-66.328 -33.599)"/><path class="b" d="M319.309,407.622h-.215a1.144,1.144,0,0,0-.3-.651.841.841,0,0,0-.631-.256.867.867,0,0,0-.831.554,2.719,2.719,0,0,0-.256,1.185,2.18,2.18,0,0,0,.328,1.277,1.18,1.18,0,0,0,1.052.513,1.236,1.236,0,0,0,.944-.431l.154.128-.221.513a1.335,1.335,0,0,1-.549.256,2.834,2.834,0,0,1-.667.092,2.329,2.329,0,0,1-1.739-.559,2.175,2.175,0,0,1-.651-1.616,2.477,2.477,0,0,1,.3-1.236,2.051,2.051,0,0,1,.831-.821,2.636,2.636,0,0,1,1.252-.282,2.842,2.842,0,0,1,1.539.4Z" transform="translate(-68.592 -35.772)"/><path class="b" d="M324.6,407.472l-.108-.513a2.051,2.051,0,0,1,.764-.446,2.806,2.806,0,0,1,.9-.154,2.18,2.18,0,0,1,1.159.3,1.026,1.026,0,0,1,.513.913v2.436a.436.436,0,0,0,.205.39h.282c.026,0,.041.046.041.138v.082a3.078,3.078,0,0,1-.446.185,2.344,2.344,0,0,1-.374.056.908.908,0,0,1-.549-.174.965.965,0,0,1-.344-.467,1.241,1.241,0,0,1-.513.477,1.339,1.339,0,0,1-.662.18,1.38,1.38,0,0,1-.934-.313,1.082,1.082,0,0,1-.359-.872,1.236,1.236,0,0,1,.144-.59.923.923,0,0,1,.4-.415,4.52,4.52,0,0,1,1.113-.374,2.268,2.268,0,0,0,.651-.241.431.431,0,0,0,.113-.349.682.682,0,0,0-.251-.513.877.877,0,0,0-.585-.215,1.467,1.467,0,0,0-1,.415l-.1.1Zm.851,2.077c0,.467.164.7.487.7.446,0,.667-.318.667-.964q0-.569.031-.862c-.185.082-.3.133-.364.154l-.2.072-.2.077a.721.721,0,0,0-.144.087.908.908,0,0,0-.287.739Z" transform="translate(-72.707 -35.806)"/><path class="b" d="M335.01,408.423l-.344-.026h-.687l-.333.026c.036-.467.051-1.169.051-2.1V403.1c0-.164,0-.574-.031-1.057v-.226a.624.624,0,0,0-.026-.236,4.033,4.033,0,0,0,.682.056,3.911,3.911,0,0,0,.7-.056,1.789,1.789,0,0,1,0,.19v2.678Q334.938,406.756,335.01,408.423Z" transform="translate(-77.316 -33.479)"/><path class="b" d="M347.835,407.613h-.21a1.185,1.185,0,0,0-.3-.651.841.841,0,0,0-.631-.256.867.867,0,0,0-.831.554,2.8,2.8,0,0,0-.256,1.185,2.221,2.221,0,0,0,.3,1.282,1.18,1.18,0,0,0,1.052.513,1.231,1.231,0,0,0,.944-.431l.154.128-.221.513a1.3,1.3,0,0,1-.549.257,2.833,2.833,0,0,1-.667.092,2.334,2.334,0,0,1-1.729-.574,2.175,2.175,0,0,1-.651-1.616,2.477,2.477,0,0,1,.3-1.236,2.015,2.015,0,0,1,.836-.821,2.611,2.611,0,0,1,1.246-.282,2.841,2.841,0,0,1,1.539.4Z" transform="translate(-82.478 -35.762)"/><path class="b" d="M354.246,408.537a5.135,5.135,0,0,0,.031.513,1.538,1.538,0,0,0,.154.513,1.35,1.35,0,0,0,.272.405,1.185,1.185,0,0,0,.836.256,1.59,1.59,0,0,0,1.057-.4l.113.082-.195.513a2.246,2.246,0,0,1-1.293.405,2.97,2.97,0,0,1-1-.149,1.826,1.826,0,0,1-.759-.539,2.442,2.442,0,0,1-.513-1.688,2.564,2.564,0,0,1,.246-1.134,1.821,1.821,0,0,1,.713-.785,2.18,2.18,0,0,1,1.118-.282,2.011,2.011,0,0,1,1.052.256,1.539,1.539,0,0,1,.616.708,2.565,2.565,0,0,1,.195,1.026v.292Zm1.4-.436a.451.451,0,0,1,0-.1.515.515,0,0,0,0-.1c-.031-.846-.236-1.267-.626-1.267a.554.554,0,0,0-.569.426,4.577,4.577,0,0,0-.185,1.026Z" transform="translate(-86.72 -35.753)"/><path class="b" d="M361.864,406.377h1.272l-.031.657a1.8,1.8,0,0,1,1.38-.754,1.462,1.462,0,0,1,1.128.513,1.114,1.114,0,0,1,.246.549,5.3,5.3,0,0,1,.046.775v2.606l-.359-.026h-.677l-.3.026a.928.928,0,0,0,0-.113.718.718,0,0,0,0-.118v-.118a.878.878,0,0,0,0-.128,4.248,4.248,0,0,1,.026-.513,3.333,3.333,0,0,0,0-.513v-.682a3.5,3.5,0,0,0-.133-1.052.575.575,0,0,0-.626-.415.605.605,0,0,0-.641.436,4.1,4.1,0,0,0-.133,1.2v2.036l-.328-.026h-.646l-.339.026v-3.58a3.32,3.32,0,0,0-.026-.554Z" transform="translate(-90.993 -35.768)"/><path class="b" d="M373.125,403.44c-.062.846-.092,1.38-.092,1.605h.805v.462h-.805c-.041.821-.056,1.482-.056,1.975v.657a1.887,1.887,0,0,0,.118.61.364.364,0,0,0,.369.18,1.334,1.334,0,0,0,.308-.041h.046l.067-.026v.349a.277.277,0,0,0-.072.041,3.016,3.016,0,0,1-.877.169,1.072,1.072,0,0,1-.928-.369,1.78,1.78,0,0,1-.272-1.052c0-.308,0-.785.056-1.436v-1.026h-.641v-.462h.641v-1.087c.308-.123.723-.308,1.241-.559Z" transform="translate(-95.586 -34.38)"/><path class="b" d="M380.54,407.6a.744.744,0,0,0-.457-.123.78.78,0,0,0-.836.6,6.4,6.4,0,0,0-.056,1.057,13.954,13.954,0,0,0,.056,1.59l-.328-.026h-.651l-.318.026c.031-.513.046-1.272.046-2.288q0-.959-.046-2.052h1.216l-.031,1.113a1.6,1.6,0,0,1,1.539-1.2,5.472,5.472,0,0,0-.056.651v.575Z" transform="translate(-98.898 -35.778)"/><path class="b" d="M385.592,408.556a5.135,5.135,0,0,0,.031.513,1.539,1.539,0,0,0,.154.513,1.263,1.263,0,0,0,.277.405,1.175,1.175,0,0,0,.805.277,1.611,1.611,0,0,0,1.062-.4l.113.082-.195.513a2.262,2.262,0,0,1-1.3.405,2.939,2.939,0,0,1-.99-.149,1.81,1.81,0,0,1-.764-.539,2.467,2.467,0,0,1-.513-1.688,2.565,2.565,0,0,1,.246-1.134,1.831,1.831,0,0,1,.718-.785,2.16,2.16,0,0,1,1.113-.282,2.011,2.011,0,0,1,1.052.256,1.508,1.508,0,0,1,.616.708,2.566,2.566,0,0,1,.2,1.026,2.054,2.054,0,0,1,0,.292Zm1.4-.436a.51.51,0,0,1,0-.1.452.452,0,0,0,0-.1c-.026-.846-.236-1.267-.626-1.267a.564.564,0,0,0-.569.426,4.577,4.577,0,0,0-.185,1.026Z" transform="translate(-101.975 -35.772)"/></g></svg>