<svg height="512" viewBox="0 0 128 128" width="512" xmlns="http://www.w3.org/2000/svg"><g><path d="m105.652 51.574a1.752 1.752 0 0 0 -2.045 1.4 72.37 72.37 0 0 1 -3.522 12.613 1.75 1.75 0 1 0 3.268 1.252 76.042 76.042 0 0 0 3.694-13.215 1.75 1.75 0 0 0 -1.395-2.05z"/><path d="m122.191 17.392-8.1-3.481-3.483-8.1a1.749 1.749 0 0 0 -3.214 0l-1.724 4.009a19.973 19.973 0 0 0 -13.98-5.07c-9.3 0-16.413 5.275-20.949 9.24a10.314 10.314 0 0 1 -13.48 0c-4.547-3.966-11.661-9.24-20.951-9.24-6.486 0-11.729 2.25-15.584 6.69-6.681 7.69-8.675 21.635-5.941 41.436l-.875 2.035-8.1 3.481a1.75 1.75 0 0 0 0 3.216l8.1 3.481 3.483 8.1a1.749 1.749 0 0 0 3.214 0l.091-.212c1.566 3.492 3.191 6.467 4.67 9.172 3.149 5.761 5.632 10.309 5.914 16.629.946 21.293 9.433 24.472 14.408 24.472 7.881 0 8.9-10.044 9.893-19.758 1.133-11.126 2.4-19 8.417-19s7.282 7.874 8.413 19c.988 9.717 2.01 19.764 9.9 19.764 4.971 0 13.453-3.179 14.4-24.473.276-6.317 2.764-10.865 5.913-16.623 3.51-6.418 7.879-14.4 10.359-27.607 1.724-11.58 1.87-21.3.458-28.941l.652-1.517 8.1-3.481a1.75 1.75 0 0 0 0-3.216zm-105.341 45.674a1.758 1.758 0 0 0 -.916-.917l-5-2.149 5-2.149a1.758 1.758 0 0 0 .916-.917l2.15-5 2.15 5a1.758 1.758 0 0 0 .916.917l5 2.149-5 2.149a1.758 1.758 0 0 0 -.916.917l-2.015 4.689c-.01.021-.018.041-.027.062l-.108.251zm92.68-9.1c-2.367 12.59-6.412 19.984-9.979 26.507-3.235 5.914-6.028 11.02-6.339 18.149-.351 7.89-2.233 21.127-10.9 21.127-4.4 0-5.394-6.58-6.414-16.618-1.058-10.377-2.254-22.141-11.898-22.141s-10.843 11.766-11.9 22.148c-1.022 10.034-2.02 16.612-6.411 16.612-8.678 0-10.561-13.237-10.912-21.126-.313-7.132-3.105-12.239-6.34-18.152a104.388 104.388 0 0 1 -5.822-11.955l1.474-3.428 8.1-3.481a1.75 1.75 0 0 0 0-3.216l-8.1-3.481-3.483-8.1a1.732 1.732 0 0 0 -3.043-.278c-1.481-15.622.46-26.644 5.8-32.8 3.166-3.633 7.521-5.483 12.947-5.483 8.109 0 14.527 4.782 18.652 8.38a13.831 13.831 0 0 0 18.079 0c4.115-3.6 10.524-8.378 18.649-8.378 5.18 0 9.367 1.7 12.494 5.023l-.274.638-8.1 3.481a1.75 1.75 0 0 0 0 3.216l8.1 3.481 3.483 8.1a1.749 1.749 0 0 0 3.214 0l.11-.254a101.882 101.882 0 0 1 -1.187 22.03zm2.536-32.818a1.758 1.758 0 0 0 -.916.917l-2.15 5-2.15-5a1.758 1.758 0 0 0 -.916-.917l-5-2.149 5-2.149a1.758 1.758 0 0 0 .916-.917l2.15-5 2.15 5a1.758 1.758 0 0 0 .916.917l5 2.149z"/></g></svg>