<?xml version="1.0"?>
<svg xmlns="http://www.w3.org/2000/svg" id="outline" viewBox="0 0 512 512" width="512" height="512"><path d="M480.80225,300.78149l7.04248-35.21264A8.00053,8.00053,0,0,0,480,256h-.69458l-7.33862-80.72412a8.00609,8.00609,0,0,0-1.02051-3.24512l-27.19336-47.5874a39.87247,39.87247,0,0,0-16.84082-15.93164L396.98193,93.54663A31.79971,31.79971,0,0,0,400,80V40a7.99943,7.99943,0,0,0-3.5625-6.65625L377.0791,20.43848A26.42157,26.42157,0,0,0,336,42.42236V80a31.79971,31.79971,0,0,0,3.01807,13.54663l-28.11182,14.05591a40.05243,40.05243,0,0,0-18.877,20.02l-18.12207,42.28467L264,174.15332V168a8.00008,8.00008,0,0,0-8-8H176a8.00008,8.00008,0,0,0-8,8v48a8.00008,8.00008,0,0,0,8,8H296a8.00091,8.00091,0,0,0,6.86035-3.88428l12.82031-21.36816L320,224.66455V272H216V256a7.99967,7.99967,0,0,0-5.46973-7.58936L166.0498,233.584l-10.61816-26.54687A39.75054,39.75054,0,0,0,151.75488,200H152V128a56,56,0,0,0-112,0v63.76013a40.2566,40.2566,0,0,0-11.92578,14.20276L16.84473,228.42236A7.99737,7.99737,0,0,0,16,232v24a31.80409,31.80409,0,0,0,4.72119,16.70813A7.996,7.996,0,0,0,16,280V488a8.00008,8.00008,0,0,0,8,8H464a32.03635,32.03635,0,0,0,32-32V328A32.0055,32.0055,0,0,0,480.80225,300.78149ZM416,432V376h24v56Zm24,16v32H416V448ZM288,344H264V320h24Zm16-16h16v16H304Zm32,16V232h64v24H376a8.00053,8.00053,0,0,0-7.84473,9.56885l7.04248,35.21264A32.0055,32.0055,0,0,0,360,328V480H344V352A8.00008,8.00008,0,0,0,336,344Zm144-16v5.333L460,360h-4V312h8A16.01833,16.01833,0,0,1,480,328Zm-94.24121-56h15.68262l4.8,24H392c-.481,0-.95825.01538-1.43408.03638ZM392,312h8v48h-4l-20-26.667V328A16.01833,16.01833,0,0,1,392,312Zm24,0h24v48H416Zm23.80273-47.80591L433.44141,296H422.55859L416,263.20752v-38.543L420.56543,197.27l4.00977,6.01465ZM376,368v-7.99976l9.59961,12.79956A7.99952,7.99952,0,0,0,392,376h8v56H376Zm80,8h8a7.99952,7.99952,0,0,0,6.40039-3.2002L480,360.00024V432H456Zm8-80H449.75854l4.8-24h15.68262l-4.80713,24.03638C464.95825,296.01538,464.481,296,464,296Zm-9.75391-40-13.197-52.787,16.28174-12.2113L463.24023,256ZM352,80V64h32V80a16,16,0,0,1-32,0Zm10.42188-48a10.38659,10.38659,0,0,1,5.78124,1.75049L384,44.28174V48H352V42.42236A10.43354,10.43354,0,0,1,362.42188,32ZM184,176h24v32H184Zm64,32H224V176h24Zm16,0V191.56073l13.37207-5.7309,15.22266,20.29676L291.4707,208Zm49.13965-36.11572-11.656,19.427-12.30835-16.411,17.561-40.975a24.02573,24.02573,0,0,1,11.32617-12.0122l31.52734-15.76368a31.89109,31.89109,0,0,0,36.82032,0l33.3457,16.67286a23.9154,23.9154,0,0,1,10.10449,9.55908l23.68994,41.4563-19.585,14.68853L422.65625,171.5625a8.00023,8.00023,0,0,0-14.54785,3.12256L401.22266,216H334.77734l-6.88574-41.31494a8.00059,8.00059,0,0,0-14.75195-2.80078ZM320,312H304a8.00008,8.00008,0,0,0-8-8H256a8.00008,8.00008,0,0,0-8,8H32V288H320ZM112,262.24609V272H96V258.24609ZM200,272H184V256.43286l16,5.33325ZM96,88a40.04552,40.04552,0,0,1,40,40v57.87048l-17.91357-10.7481A31.90253,31.90253,0,0,0,128,152V128a8.00035,8.00035,0,0,0-2.34277-5.65674l-16-16A8.00063,8.00063,0,0,0,97.34375,107.562l-7.125,10.6875A21.8521,21.8521,0,0,1,72,128a8.00008,8.00008,0,0,0-8,8v16a31.89149,31.89149,0,0,0,9.22,22.44568l-17.22,8.61V128A40.04552,40.04552,0,0,1,96,88Zm16,64a16,16,0,0,1-32,0v-8.84863a37.815,37.815,0,0,0,23.53125-16.02686l1.71191-2.56738L112,131.314ZM89.88867,184h11.89551l14.31348,8.58826L96,212.686,74.83887,191.5249ZM32,233.88867l10.38477-20.77a24.152,24.152,0,0,1,10.73437-10.73388l6.63452-3.3172,30.58911,30.58917a8.00063,8.00063,0,0,0,11.31446,0l28.583-28.583.39942.23969a24.1413,24.1413,0,0,1,9.93652,11.6665l11.9961,29.99121a7.99992,7.99992,0,0,0,4.89746,4.61817L168,251.09943V272H128V256a8.00005,8.00005,0,0,0-6.05957-7.76123l-64-16-3.88086,15.52246L80,254.24622V272H48a16.01833,16.01833,0,0,1-16-16ZM208,352V480H32V328H248v16H216A8.00008,8.00008,0,0,0,208,352ZM328,480H224V360h24v16h16V360h24v16h16V360h24Zm64,0a16.01833,16.01833,0,0,1-16-16V448h24v32Zm72,0h-8V448h24v16A16.01833,16.01833,0,0,1,464,480Z"/></svg>
